<svg width="1256" height="384" viewBox="0 0 1256 384" fill="none" xmlns="http://www.w3.org/2000/svg">
<mask id="mask0_3003_105" style="mask-type:alpha" maskUnits="userSpaceOnUse" x="0" y="0" width="384" height="384">
<circle cx="192.188" cy="192.047" r="189.119" fill="#C4C4C4" stroke="#F8BB54" stroke-width="5.29003"/>
</mask>
<g mask="url(#mask0_3003_105)">
<path d="M-111.019 80.7056C-111.019 80.7056 -21.7227 64.1642 1.31684 6.27C23.3511 -49.228 114.117 -64.1456 114.117 -64.1456" stroke="#3CB49B" stroke-width="5.94616" stroke-miterlimit="10"/>
<path d="M-111.019 108.531C-111.019 108.531 -1.46643 89.4397 26.7528 19.5648C53.6578 -47.141 164.911 -64.1456 164.911 -64.1456" stroke="#3CB49B" stroke-width="5.94616" stroke-miterlimit="10"/>
<path d="M-111.019 136.435C-111.019 136.435 18.7123 114.715 52.1115 33.0142C83.9645 -45.131 215.706 -64.1456 215.706 -64.1456" stroke="#3CB49B" stroke-width="5.94616" stroke-miterlimit="10"/>
<path d="M-111.019 164.261C-111.019 164.261 38.9683 139.991 77.5475 46.3091C114.271 -43.044 266.501 -64.1456 266.501 -64.1456" stroke="#3CB49B" stroke-width="5.94616" stroke-miterlimit="10"/>
<path d="M-111.019 192.088C-111.019 192.088 59.2243 165.266 102.983 59.681C144.578 -40.957 317.218 -64.1456 317.218 -64.1456" stroke="#3CB49B" stroke-width="5.94616" stroke-miterlimit="10"/>
<path d="M-111.019 219.991C-111.019 219.991 79.403 190.619 128.342 73.0528C174.962 -38.9476 368.013 -64.1456 368.013 -64.1456" stroke="#3CB49B" stroke-width="5.94616" stroke-miterlimit="10"/>
<path d="M-111.019 247.817C-111.019 247.817 99.659 215.817 153.778 86.4253C205.269 -36.8606 418.807 -64.1456 418.807 -64.1456" stroke="#3CB49B" stroke-width="5.94616" stroke-miterlimit="10"/>
<path d="M-111.019 275.644C-111.019 275.644 119.915 241.093 179.137 99.7201C235.575 -34.7736 469.602 -64.1456 469.602 -64.1456" stroke="#3CB49B" stroke-width="5.94616" stroke-miterlimit="10"/>
<path d="M-111.019 303.548C-111.019 303.548 140.094 266.446 204.573 113.169C265.882 -32.7642 520.32 -64.1456 520.32 -64.1456" stroke="#3CB49B" stroke-width="5.94616" stroke-miterlimit="10"/>
<path d="M-111.019 331.372C-111.019 331.372 160.35 291.721 229.932 126.541C296.189 -30.6772 571.114 -64.1456 571.114 -64.1456" stroke="#3CB49B" stroke-width="5.94616" stroke-miterlimit="10"/>
<path d="M-111.019 359.275C-111.019 359.275 180.606 316.996 255.368 139.913C326.496 -28.5902 621.909 -64.1456 621.909 -64.1456" stroke="#3CB49B" stroke-width="5.94616" stroke-miterlimit="10"/>
<path d="M-111.019 387.104C-111.019 387.104 200.785 342.272 280.726 153.286C356.802 -26.5802 672.702 -64.1456 672.702 -64.1456" stroke="#3CB49B" stroke-width="5.94616" stroke-miterlimit="10"/>
<path d="M-111.019 414.927C-111.019 414.927 221.04 367.548 306.162 166.58C387.109 -24.4932 723.497 -64.1456 723.497 -64.1456" stroke="#3CB49B" stroke-width="5.94616" stroke-miterlimit="10"/>
<path d="M-111.019 442.831C-111.019 442.831 241.297 392.824 331.598 180.029C417.416 -22.4062 774.216 -64.1456 774.216 -64.1456" stroke="#3CB49B" stroke-width="5.94616" stroke-miterlimit="10"/>
<path d="M-111.019 470.659C-111.019 470.659 261.475 418.099 356.957 193.324C447.723 -20.3968 825.011 -64.1456 825.011 -64.1456" stroke="#3CB49B" stroke-width="5.94616" stroke-miterlimit="10"/>
<path d="M-111.019 498.488C-111.019 498.488 281.732 443.375 382.393 206.696C478.029 -18.3097 875.805 -64.1456 875.805 -64.1456" stroke="#3CB49B" stroke-width="5.94616" stroke-miterlimit="10"/>
<path d="M-111.019 526.392C-111.019 526.392 301.987 468.726 407.751 220.069C508.336 -16.2227 926.599 -64.1456 926.599 -64.1456" stroke="#3CB49B" stroke-width="5.94616" stroke-miterlimit="10"/>
<path d="M-111.019 554.215C-111.019 554.215 322.166 493.926 433.187 233.44C538.643 -14.2133 977.319 -64.1456 977.319 -64.1456" stroke="#3CB49B" stroke-width="5.94616" stroke-miterlimit="10"/>
</g>
<g clip-path="url(#clip0_3003_105)">
<path d="M1251.56 323.972C1253.5 323.972 1255.06 322.404 1255.06 320.469C1255.06 318.534 1253.5 316.965 1251.56 316.965C1249.63 316.965 1248.06 318.534 1248.06 320.469C1248.06 322.404 1249.63 323.972 1251.56 323.972Z" fill="#283978"/>
<path d="M1219.79 323.972C1221.73 323.972 1223.29 322.404 1223.29 320.469C1223.29 318.534 1221.73 316.965 1219.79 316.965C1217.86 316.965 1216.29 318.534 1216.29 320.469C1216.29 322.404 1217.86 323.972 1219.79 323.972Z" fill="#283978"/>
<path d="M1188.03 323.973C1188.73 323.975 1189.41 323.771 1189.99 323.387C1190.57 323.002 1191.02 322.453 1191.29 321.811C1191.56 321.169 1191.63 320.461 1191.5 319.778C1191.36 319.095 1191.03 318.467 1190.54 317.974C1190.05 317.481 1189.42 317.145 1188.74 317.008C1188.06 316.871 1187.35 316.94 1186.7 317.206C1186.06 317.471 1185.51 317.922 1185.12 318.501C1184.74 319.079 1184.53 319.76 1184.53 320.456C1184.53 321.386 1184.9 322.279 1185.56 322.938C1186.21 323.597 1187.1 323.969 1188.03 323.973Z" fill="#283978"/>
<path d="M1156.28 323.973C1156.97 323.973 1157.65 323.767 1158.23 323.38C1158.81 322.994 1159.26 322.444 1159.53 321.802C1159.79 321.159 1159.86 320.452 1159.73 319.77C1159.59 319.088 1159.25 318.461 1158.76 317.969C1158.27 317.477 1157.64 317.142 1156.96 317.007C1156.28 316.871 1155.57 316.941 1154.93 317.207C1154.29 317.473 1153.74 317.924 1153.35 318.502C1152.97 319.081 1152.76 319.76 1152.76 320.456C1152.76 320.918 1152.85 321.375 1153.03 321.802C1153.2 322.228 1153.46 322.616 1153.79 322.943C1154.12 323.269 1154.5 323.528 1154.93 323.705C1155.36 323.882 1155.81 323.973 1156.28 323.973Z" fill="#283978"/>
<path d="M1124.51 323.972C1126.44 323.972 1128.01 322.404 1128.01 320.469C1128.01 318.534 1126.44 316.965 1124.51 316.965C1122.57 316.965 1121 318.534 1121 320.469C1121 322.404 1122.57 323.972 1124.51 323.972Z" fill="#283978"/>
<path d="M1094.09 323.555C1095.88 322.819 1096.73 320.772 1096 318.982C1095.26 317.192 1093.21 316.338 1091.42 317.074C1089.64 317.81 1088.78 319.857 1089.52 321.647C1090.25 323.436 1092.3 324.29 1094.09 323.555Z" fill="#283978"/>
<path d="M1060.99 317.005C1060.3 317.003 1059.61 317.207 1059.03 317.592C1058.45 317.978 1058 318.527 1057.73 319.17C1057.46 319.813 1057.39 320.521 1057.53 321.205C1057.66 321.888 1058 322.516 1058.49 323.009C1058.98 323.501 1059.61 323.837 1060.3 323.972C1060.98 324.107 1061.69 324.036 1062.33 323.769C1062.97 323.501 1063.52 323.048 1063.91 322.468C1064.29 321.887 1064.5 321.205 1064.5 320.509C1064.49 319.581 1064.12 318.692 1063.47 318.035C1062.81 317.379 1061.92 317.009 1060.99 317.005Z" fill="#283978"/>
<path d="M1251.56 295.559C1253.5 295.559 1255.06 293.99 1255.06 292.056C1255.06 290.121 1253.5 288.552 1251.56 288.552C1249.63 288.552 1248.06 290.121 1248.06 292.056C1248.06 293.99 1249.63 295.559 1251.56 295.559Z" fill="#283978"/>
<path d="M1219.79 295.559C1221.73 295.559 1223.29 293.99 1223.29 292.056C1223.29 290.121 1221.73 288.552 1219.79 288.552C1217.86 288.552 1216.29 290.121 1216.29 292.056C1216.29 293.99 1217.86 295.559 1219.79 295.559Z" fill="#283978"/>
<path d="M1188.03 295.56C1188.73 295.562 1189.41 295.358 1189.99 294.973C1190.57 294.587 1191.03 294.038 1191.29 293.395C1191.56 292.752 1191.63 292.043 1191.5 291.36C1191.36 290.677 1191.03 290.049 1190.53 289.556C1190.04 289.064 1189.41 288.728 1188.73 288.593C1188.05 288.458 1187.34 288.529 1186.7 288.796C1186.05 289.064 1185.5 289.517 1185.12 290.097C1184.73 290.678 1184.53 291.359 1184.53 292.056C1184.53 292.984 1184.9 293.873 1185.56 294.53C1186.22 295.186 1187.11 295.556 1188.03 295.56Z" fill="#283978"/>
<path d="M1156.28 295.56C1156.97 295.56 1157.65 295.353 1158.23 294.966C1158.81 294.579 1159.26 294.029 1159.53 293.386C1159.79 292.742 1159.86 292.034 1159.72 291.352C1159.59 290.669 1159.25 290.043 1158.76 289.551C1158.26 289.06 1157.64 288.726 1156.95 288.592C1156.27 288.458 1155.56 288.529 1154.92 288.798C1154.28 289.066 1153.73 289.519 1153.35 290.099C1152.96 290.679 1152.76 291.36 1152.76 292.056C1152.76 292.517 1152.85 292.974 1153.03 293.4C1153.2 293.826 1153.46 294.213 1153.79 294.538C1154.12 294.864 1154.5 295.121 1154.93 295.297C1155.36 295.472 1155.81 295.561 1156.28 295.56Z" fill="#283978"/>
<path d="M1124.51 295.559C1126.44 295.559 1128.01 293.99 1128.01 292.056C1128.01 290.121 1126.44 288.552 1124.51 288.552C1122.57 288.552 1121 290.121 1121 292.056C1121 293.99 1122.57 295.559 1124.51 295.559Z" fill="#283978"/>
<path d="M1094.09 295.152C1095.88 294.416 1096.74 292.369 1096 290.579C1095.26 288.79 1093.22 287.935 1091.43 288.671C1089.64 289.407 1088.78 291.454 1089.52 293.244C1090.26 295.033 1092.3 295.888 1094.09 295.152Z" fill="#283978"/>
<path d="M1060.99 295.56C1061.69 295.56 1062.37 295.353 1062.95 294.966C1063.53 294.579 1063.98 294.029 1064.24 293.386C1064.51 292.742 1064.58 292.034 1064.44 291.352C1064.3 290.669 1063.97 290.043 1063.47 289.551C1062.98 289.06 1062.35 288.726 1061.67 288.592C1060.99 288.458 1060.28 288.529 1059.64 288.798C1058.99 289.066 1058.45 289.519 1058.06 290.099C1057.68 290.679 1057.47 291.36 1057.48 292.056C1057.47 292.517 1057.57 292.974 1057.74 293.4C1057.92 293.826 1058.18 294.213 1058.51 294.538C1058.83 294.864 1059.22 295.121 1059.65 295.297C1060.07 295.472 1060.53 295.561 1060.99 295.56Z" fill="#283978"/>
<path d="M1251.56 267.146C1253.5 267.146 1255.06 265.577 1255.06 263.642C1255.06 261.707 1253.5 260.139 1251.56 260.139C1249.63 260.139 1248.06 261.707 1248.06 263.642C1248.06 265.577 1249.63 267.146 1251.56 267.146Z" fill="#283978"/>
<path d="M1219.79 267.146C1221.73 267.146 1223.29 265.577 1223.29 263.642C1223.29 261.707 1221.73 260.139 1219.79 260.139C1217.86 260.139 1216.29 261.707 1216.29 263.642C1216.29 265.577 1217.86 267.146 1219.79 267.146Z" fill="#283978"/>
<path d="M1188.03 267.16C1188.73 267.162 1189.41 266.958 1189.99 266.573C1190.57 266.189 1191.02 265.64 1191.29 264.998C1191.56 264.355 1191.63 263.648 1191.5 262.965C1191.36 262.282 1191.03 261.654 1190.54 261.161C1190.05 260.668 1189.42 260.331 1188.74 260.195C1188.06 260.058 1187.35 260.127 1186.7 260.392C1186.06 260.658 1185.51 261.109 1185.12 261.688C1184.74 262.266 1184.53 262.947 1184.53 263.643C1184.53 264.573 1184.9 265.466 1185.56 266.125C1186.21 266.784 1187.1 267.156 1188.03 267.16Z" fill="#283978"/>
<path d="M1156.28 267.16C1156.97 267.16 1157.65 266.953 1158.23 266.567C1158.81 266.18 1159.26 265.631 1159.53 264.989C1159.79 264.346 1159.86 263.639 1159.73 262.957C1159.59 262.274 1159.25 261.648 1158.76 261.156C1158.27 260.664 1157.64 260.329 1156.96 260.194C1156.28 260.058 1155.57 260.128 1154.93 260.394C1154.29 260.66 1153.74 261.111 1153.35 261.689C1152.97 262.267 1152.76 262.947 1152.76 263.643C1152.76 264.105 1152.85 264.562 1153.03 264.989C1153.2 265.415 1153.46 265.803 1153.79 266.129C1154.12 266.456 1154.5 266.715 1154.93 266.892C1155.36 267.069 1155.81 267.16 1156.28 267.16Z" fill="#283978"/>
<path d="M1124.51 267.146C1126.44 267.146 1128.01 265.577 1128.01 263.642C1128.01 261.707 1126.44 260.139 1124.51 260.139C1122.57 260.139 1121 261.707 1121 263.642C1121 265.577 1122.57 267.146 1124.51 267.146Z" fill="#283978"/>
<path d="M1094.09 266.75C1095.88 266.015 1096.73 263.967 1096 262.178C1095.26 260.388 1093.22 259.534 1091.43 260.27C1089.64 261.006 1088.78 263.053 1089.52 264.842C1090.25 266.632 1092.3 267.486 1094.09 266.75Z" fill="#283978"/>
<path d="M1060.99 267.16C1061.69 267.16 1062.37 266.953 1062.95 266.567C1063.52 266.18 1063.97 265.631 1064.24 264.989C1064.51 264.346 1064.58 263.639 1064.44 262.957C1064.31 262.274 1063.97 261.648 1063.48 261.156C1062.99 260.664 1062.36 260.329 1061.68 260.194C1061 260.058 1060.29 260.128 1059.65 260.394C1059 260.66 1058.45 261.111 1058.07 261.689C1057.68 262.267 1057.47 262.947 1057.47 263.643C1057.47 264.575 1057.85 265.47 1058.51 266.129C1059.16 266.789 1060.06 267.16 1060.99 267.16Z" fill="#283978"/>
<path d="M1251.56 238.747C1253.5 238.747 1255.06 237.179 1255.06 235.244C1255.06 233.309 1253.5 231.74 1251.56 231.74C1249.63 231.74 1248.06 233.309 1248.06 235.244C1248.06 237.179 1249.63 238.747 1251.56 238.747Z" fill="#283978"/>
<path d="M1219.79 238.747C1221.73 238.747 1223.29 237.179 1223.29 235.244C1223.29 233.309 1221.73 231.74 1219.79 231.74C1217.86 231.74 1216.29 233.309 1216.29 235.244C1216.29 237.179 1217.86 238.747 1219.79 238.747Z" fill="#283978"/>
<path d="M1188.03 238.708C1188.73 238.71 1189.41 238.506 1189.99 238.12C1190.57 237.735 1191.03 237.186 1191.29 236.543C1191.56 235.9 1191.63 235.191 1191.5 234.508C1191.36 233.825 1191.03 233.197 1190.53 232.704C1190.04 232.212 1189.41 231.876 1188.73 231.741C1188.05 231.606 1187.34 231.676 1186.7 231.944C1186.05 232.212 1185.5 232.665 1185.12 233.245C1184.73 233.826 1184.53 234.507 1184.53 235.204C1184.53 236.132 1184.9 237.021 1185.56 237.678C1186.22 238.334 1187.11 238.704 1188.03 238.708Z" fill="#283978"/>
<path d="M1156.28 238.708C1156.97 238.708 1157.65 238.501 1158.23 238.114C1158.81 237.727 1159.26 237.177 1159.53 236.534C1159.79 235.89 1159.86 235.182 1159.72 234.5C1159.59 233.817 1159.25 233.191 1158.76 232.699C1158.26 232.208 1157.64 231.874 1156.95 231.74C1156.27 231.606 1155.56 231.677 1154.92 231.946C1154.28 232.214 1153.73 232.667 1153.35 233.247C1152.96 233.827 1152.76 234.508 1152.76 235.204C1152.76 235.665 1152.85 236.122 1153.03 236.548C1153.2 236.974 1153.46 237.361 1153.79 237.686C1154.12 238.012 1154.5 238.269 1154.93 238.445C1155.36 238.62 1155.81 238.709 1156.28 238.708Z" fill="#283978"/>
<path d="M1124.51 238.747C1126.44 238.747 1128.01 237.179 1128.01 235.244C1128.01 233.309 1126.44 231.74 1124.51 231.74C1122.57 231.74 1121 233.309 1121 235.244C1121 237.179 1122.57 238.747 1124.51 238.747Z" fill="#283978"/>
<path d="M1094.09 238.348C1095.88 237.612 1096.74 235.565 1096 233.775C1095.27 231.986 1093.22 231.131 1091.43 231.867C1089.64 232.603 1088.79 234.65 1089.52 236.44C1090.26 238.229 1092.3 239.084 1094.09 238.348Z" fill="#283978"/>
<path d="M1060.99 238.708C1061.69 238.708 1062.37 238.501 1062.95 238.114C1063.53 237.727 1063.98 237.177 1064.24 236.534C1064.51 235.89 1064.58 235.182 1064.44 234.5C1064.3 233.817 1063.97 233.191 1063.47 232.699C1062.98 232.208 1062.35 231.874 1061.67 231.74C1060.99 231.606 1060.28 231.677 1059.64 231.946C1058.99 232.214 1058.45 232.667 1058.06 233.247C1057.68 233.827 1057.47 234.508 1057.48 235.204C1057.47 235.665 1057.57 236.122 1057.74 236.548C1057.92 236.974 1058.18 237.361 1058.51 237.686C1058.83 238.012 1059.22 238.269 1059.65 238.445C1060.07 238.62 1060.53 238.709 1060.99 238.708Z" fill="#283978"/>
<path d="M1251.56 210.334C1253.5 210.334 1255.06 208.765 1255.06 206.831C1255.06 204.896 1253.5 203.327 1251.56 203.327C1249.63 203.327 1248.06 204.896 1248.06 206.831C1248.06 208.765 1249.63 210.334 1251.56 210.334Z" fill="#283978"/>
<path d="M1219.79 210.334C1221.73 210.334 1223.29 208.765 1223.29 206.831C1223.29 204.896 1221.73 203.327 1219.79 203.327C1217.86 203.327 1216.29 204.896 1216.29 206.831C1216.29 208.765 1217.86 210.334 1219.79 210.334Z" fill="#283978"/>
<path d="M1188.03 210.348C1188.73 210.35 1189.41 210.146 1189.99 209.761C1190.57 209.377 1191.02 208.828 1191.29 208.186C1191.56 207.543 1191.63 206.836 1191.5 206.153C1191.36 205.47 1191.03 204.842 1190.54 204.349C1190.05 203.856 1189.42 203.519 1188.74 203.383C1188.06 203.246 1187.35 203.315 1186.7 203.581C1186.06 203.846 1185.51 204.297 1185.12 204.876C1184.74 205.454 1184.53 206.135 1184.53 206.831C1184.53 207.761 1184.9 208.654 1185.56 209.313C1186.21 209.972 1187.1 210.344 1188.03 210.348Z" fill="#283978"/>
<path d="M1156.28 210.348C1156.97 210.348 1157.65 210.141 1158.23 209.755C1158.81 209.369 1159.26 208.819 1159.53 208.177C1159.79 207.534 1159.86 206.827 1159.73 206.145C1159.59 205.463 1159.25 204.836 1158.76 204.344C1158.27 203.852 1157.64 203.517 1156.96 203.382C1156.28 203.246 1155.57 203.316 1154.93 203.582C1154.29 203.848 1153.74 204.299 1153.35 204.877C1152.97 205.455 1152.76 206.135 1152.76 206.831C1152.76 207.293 1152.85 207.75 1153.03 208.177C1153.2 208.603 1153.46 208.991 1153.79 209.318C1154.12 209.644 1154.5 209.903 1154.93 210.08C1155.36 210.257 1155.81 210.348 1156.28 210.348Z" fill="#283978"/>
<path d="M1124.51 210.334C1126.44 210.334 1128.01 208.765 1128.01 206.831C1128.01 204.896 1126.44 203.327 1124.51 203.327C1122.57 203.327 1121 204.896 1121 206.831C1121 208.765 1122.57 210.334 1124.51 210.334Z" fill="#283978"/>
<path d="M1094.09 209.932C1095.88 209.196 1096.74 207.149 1096 205.36C1095.26 203.57 1093.22 202.716 1091.43 203.452C1089.64 204.187 1088.78 206.234 1089.52 208.024C1090.26 209.814 1092.3 210.668 1094.09 209.932Z" fill="#283978"/>
<path d="M1060.99 210.348C1061.69 210.348 1062.37 210.141 1062.95 209.755C1063.52 209.369 1063.97 208.819 1064.24 208.177C1064.51 207.534 1064.58 206.827 1064.44 206.145C1064.31 205.463 1063.97 204.836 1063.48 204.344C1062.99 203.852 1062.36 203.517 1061.68 203.382C1061 203.246 1060.29 203.316 1059.65 203.582C1059 203.848 1058.45 204.299 1058.07 204.877C1057.68 205.455 1057.47 206.135 1057.47 206.831C1057.47 207.764 1057.85 208.658 1058.51 209.318C1059.16 209.977 1060.06 210.348 1060.99 210.348Z" fill="#283978"/>
</g>
<g clip-path="url(#clip1_3003_105)">
<path d="M1251.56 180.647C1253.5 180.647 1255.06 179.079 1255.06 177.144C1255.06 175.209 1253.5 173.64 1251.56 173.64C1249.63 173.64 1248.06 175.209 1248.06 177.144C1248.06 179.079 1249.63 180.647 1251.56 180.647Z" fill="#283978"/>
<path d="M1219.79 180.647C1221.73 180.647 1223.29 179.079 1223.29 177.144C1223.29 175.209 1221.73 173.64 1219.79 173.64C1217.86 173.64 1216.29 175.209 1216.29 177.144C1216.29 179.079 1217.86 180.647 1219.79 180.647Z" fill="#283978"/>
<path d="M1188.03 180.648C1188.73 180.65 1189.41 180.446 1189.99 180.062C1190.57 179.677 1191.02 179.128 1191.29 178.486C1191.56 177.844 1191.63 177.136 1191.5 176.453C1191.36 175.77 1191.03 175.142 1190.54 174.649C1190.05 174.156 1189.42 173.82 1188.74 173.683C1188.06 173.546 1187.35 173.615 1186.7 173.881C1186.06 174.146 1185.51 174.597 1185.12 175.176C1184.74 175.754 1184.53 176.435 1184.53 177.131C1184.53 178.061 1184.9 178.954 1185.56 179.613C1186.21 180.272 1187.1 180.644 1188.03 180.648Z" fill="#283978"/>
<path d="M1156.28 180.648C1156.97 180.648 1157.65 180.442 1158.23 180.055C1158.81 179.669 1159.26 179.119 1159.53 178.477C1159.79 177.834 1159.86 177.127 1159.73 176.445C1159.59 175.763 1159.25 175.136 1158.76 174.644C1158.27 174.153 1157.64 173.818 1156.96 173.682C1156.28 173.546 1155.57 173.616 1154.93 173.882C1154.29 174.148 1153.74 174.599 1153.35 175.177C1152.97 175.756 1152.76 176.435 1152.76 177.131C1152.76 177.593 1152.85 178.05 1153.03 178.477C1153.2 178.904 1153.46 179.291 1153.79 179.618C1154.12 179.944 1154.5 180.203 1154.93 180.38C1155.36 180.557 1155.81 180.648 1156.28 180.648Z" fill="#283978"/>
<path d="M1124.51 180.647C1126.44 180.647 1128.01 179.079 1128.01 177.144C1128.01 175.209 1126.44 173.64 1124.51 173.64C1122.57 173.64 1121 175.209 1121 177.144C1121 179.079 1122.57 180.647 1124.51 180.647Z" fill="#283978"/>
<path d="M1094.09 180.23C1095.88 179.494 1096.73 177.447 1096 175.657C1095.26 173.867 1093.21 173.013 1091.42 173.749C1089.64 174.485 1088.78 176.532 1089.52 178.322C1090.25 180.111 1092.3 180.965 1094.09 180.23Z" fill="#283978"/>
<path d="M1060.99 173.68C1060.3 173.678 1059.61 173.882 1059.03 174.268C1058.45 174.653 1058 175.202 1057.73 175.845C1057.46 176.488 1057.39 177.197 1057.53 177.88C1057.66 178.563 1058 179.191 1058.49 179.684C1058.98 180.177 1059.61 180.512 1060.3 180.647C1060.98 180.782 1061.69 180.711 1062.33 180.444C1062.97 180.176 1063.52 179.723 1063.91 179.143C1064.29 178.562 1064.5 177.881 1064.5 177.184C1064.49 176.256 1064.12 175.367 1063.47 174.71C1062.81 174.054 1061.92 173.684 1060.99 173.68Z" fill="#283978"/>
<path d="M1251.56 152.234C1253.5 152.234 1255.06 150.666 1255.06 148.731C1255.06 146.796 1253.5 145.227 1251.56 145.227C1249.63 145.227 1248.06 146.796 1248.06 148.731C1248.06 150.666 1249.63 152.234 1251.56 152.234Z" fill="#283978"/>
<path d="M1219.79 152.234C1221.73 152.234 1223.29 150.666 1223.29 148.731C1223.29 146.796 1221.73 145.227 1219.79 145.227C1217.86 145.227 1216.29 146.796 1216.29 148.731C1216.29 150.666 1217.86 152.234 1219.79 152.234Z" fill="#283978"/>
<path d="M1188.03 152.235C1188.73 152.237 1189.41 152.033 1189.99 151.648C1190.57 151.262 1191.03 150.713 1191.29 150.07C1191.56 149.427 1191.63 148.719 1191.5 148.035C1191.36 147.352 1191.03 146.724 1190.53 146.231C1190.04 145.739 1189.41 145.403 1188.73 145.268C1188.05 145.133 1187.34 145.204 1186.7 145.471C1186.05 145.739 1185.5 146.192 1185.12 146.772C1184.73 147.353 1184.53 148.035 1184.53 148.731C1184.53 149.659 1184.9 150.548 1185.56 151.205C1186.22 151.861 1187.11 152.231 1188.03 152.235Z" fill="#283978"/>
<path d="M1156.28 152.235C1156.97 152.235 1157.65 152.028 1158.23 151.641C1158.81 151.254 1159.26 150.704 1159.53 150.061C1159.79 149.417 1159.86 148.709 1159.72 148.027C1159.59 147.344 1159.25 146.718 1158.76 146.226C1158.26 145.735 1157.64 145.401 1156.95 145.267C1156.27 145.133 1155.56 145.204 1154.92 145.473C1154.28 145.741 1153.73 146.194 1153.35 146.774C1152.96 147.354 1152.76 148.035 1152.76 148.731C1152.76 149.192 1152.85 149.649 1153.03 150.075C1153.2 150.501 1153.46 150.888 1153.79 151.213C1154.12 151.539 1154.5 151.797 1154.93 151.972C1155.36 152.147 1155.81 152.236 1156.28 152.235Z" fill="#283978"/>
<path d="M1124.51 152.234C1126.44 152.234 1128.01 150.666 1128.01 148.731C1128.01 146.796 1126.44 145.227 1124.51 145.227C1122.57 145.227 1121 146.796 1121 148.731C1121 150.666 1122.57 152.234 1124.51 152.234Z" fill="#283978"/>
<path d="M1094.09 151.827C1095.88 151.091 1096.74 149.044 1096 147.254C1095.26 145.465 1093.22 144.611 1091.43 145.346C1089.64 146.082 1088.78 148.129 1089.52 149.919C1090.26 151.708 1092.3 152.563 1094.09 151.827Z" fill="#283978"/>
<path d="M1060.99 152.235C1061.69 152.235 1062.37 152.028 1062.95 151.641C1063.53 151.254 1063.98 150.704 1064.24 150.061C1064.51 149.417 1064.58 148.709 1064.44 148.027C1064.3 147.344 1063.97 146.718 1063.47 146.226C1062.98 145.735 1062.35 145.401 1061.67 145.267C1060.99 145.133 1060.28 145.204 1059.64 145.473C1058.99 145.741 1058.45 146.194 1058.06 146.774C1057.68 147.354 1057.47 148.035 1057.48 148.731C1057.47 149.192 1057.57 149.649 1057.74 150.075C1057.92 150.501 1058.18 150.888 1058.51 151.213C1058.83 151.539 1059.22 151.797 1059.65 151.972C1060.07 152.147 1060.53 152.236 1060.99 152.235Z" fill="#283978"/>
<path d="M1251.56 123.821C1253.5 123.821 1255.06 122.253 1255.06 120.318C1255.06 118.383 1253.5 116.814 1251.56 116.814C1249.63 116.814 1248.06 118.383 1248.06 120.318C1248.06 122.253 1249.63 123.821 1251.56 123.821Z" fill="#283978"/>
<path d="M1219.79 123.821C1221.73 123.821 1223.29 122.253 1223.29 120.318C1223.29 118.383 1221.73 116.814 1219.79 116.814C1217.86 116.814 1216.29 118.383 1216.29 120.318C1216.29 122.253 1217.86 123.821 1219.79 123.821Z" fill="#283978"/>
<path d="M1188.03 123.835C1188.73 123.837 1189.41 123.633 1189.99 123.249C1190.57 122.864 1191.02 122.315 1191.29 121.673C1191.56 121.031 1191.63 120.323 1191.5 119.64C1191.36 118.957 1191.03 118.329 1190.54 117.836C1190.05 117.343 1189.42 117.006 1188.74 116.87C1188.06 116.733 1187.35 116.802 1186.7 117.068C1186.06 117.333 1185.51 117.784 1185.12 118.363C1184.74 118.941 1184.53 119.622 1184.53 120.318C1184.53 121.248 1184.9 122.141 1185.56 122.8C1186.21 123.459 1187.1 123.831 1188.03 123.835Z" fill="#283978"/>
<path d="M1156.28 123.835C1156.97 123.835 1157.65 123.628 1158.23 123.242C1158.81 122.856 1159.26 122.306 1159.53 121.664C1159.79 121.021 1159.86 120.314 1159.73 119.632C1159.59 118.95 1159.25 118.323 1158.76 117.831C1158.27 117.339 1157.64 117.004 1156.96 116.869C1156.28 116.733 1155.57 116.803 1154.93 117.069C1154.29 117.335 1153.74 117.786 1153.35 118.364C1152.97 118.942 1152.76 119.622 1152.76 120.318C1152.76 120.78 1152.85 121.237 1153.03 121.664C1153.2 122.09 1153.46 122.478 1153.79 122.805C1154.12 123.131 1154.5 123.39 1154.93 123.567C1155.36 123.744 1155.81 123.835 1156.28 123.835Z" fill="#283978"/>
<path d="M1124.51 123.821C1126.44 123.821 1128.01 122.253 1128.01 120.318C1128.01 118.383 1126.44 116.814 1124.51 116.814C1122.57 116.814 1121 118.383 1121 120.318C1121 122.253 1122.57 123.821 1124.51 123.821Z" fill="#283978"/>
<path d="M1094.09 123.426C1095.88 122.69 1096.73 120.643 1096 118.853C1095.26 117.063 1093.22 116.209 1091.43 116.945C1089.64 117.681 1088.78 119.728 1089.52 121.517C1090.25 123.307 1092.3 124.161 1094.09 123.426Z" fill="#283978"/>
<path d="M1060.99 123.835C1061.69 123.835 1062.37 123.628 1062.95 123.242C1063.52 122.856 1063.97 122.306 1064.24 121.664C1064.51 121.021 1064.58 120.314 1064.44 119.632C1064.31 118.95 1063.97 118.323 1063.48 117.831C1062.99 117.339 1062.36 117.004 1061.68 116.869C1061 116.733 1060.29 116.803 1059.65 117.069C1059 117.335 1058.45 117.786 1058.07 118.364C1057.68 118.942 1057.47 119.622 1057.47 120.318C1057.47 121.251 1057.85 122.145 1058.51 122.805C1059.16 123.464 1060.06 123.835 1060.99 123.835Z" fill="#283978"/>
<path d="M1251.56 95.4223C1253.5 95.4223 1255.06 93.8537 1255.06 91.9188C1255.06 89.9839 1253.5 88.4153 1251.56 88.4153C1249.63 88.4153 1248.06 89.9839 1248.06 91.9188C1248.06 93.8537 1249.63 95.4223 1251.56 95.4223Z" fill="#283978"/>
<path d="M1219.79 95.4223C1221.73 95.4223 1223.29 93.8537 1223.29 91.9188C1223.29 89.9839 1221.73 88.4153 1219.79 88.4153C1217.86 88.4153 1216.29 89.9839 1216.29 91.9188C1216.29 93.8537 1217.86 95.4223 1219.79 95.4223Z" fill="#283978"/>
<path d="M1188.03 95.3827C1188.73 95.3853 1189.41 95.1809 1189.99 94.7955C1190.57 94.4101 1191.03 93.861 1191.29 93.2178C1191.56 92.5747 1191.63 91.8665 1191.5 91.1831C1191.36 90.4996 1191.03 89.8718 1190.53 89.3792C1190.04 88.8866 1189.41 88.5513 1188.73 88.4161C1188.05 88.2808 1187.34 88.3515 1186.7 88.6194C1186.05 88.8872 1185.5 89.34 1185.12 89.9204C1184.73 90.5007 1184.53 91.1825 1184.53 91.8792C1184.53 92.8073 1184.9 93.6964 1185.56 94.3527C1186.22 95.009 1187.11 95.3792 1188.03 95.3827Z" fill="#283978"/>
<path d="M1156.28 95.3827C1156.97 95.3827 1157.65 95.1761 1158.23 94.789C1158.81 94.402 1159.26 93.852 1159.53 93.2087C1159.79 92.5653 1159.86 91.8575 1159.72 91.175C1159.59 90.4924 1159.25 89.8658 1158.76 89.3745C1158.26 88.8832 1157.64 88.5493 1156.95 88.4151C1156.27 88.2809 1155.56 88.3524 1154.92 88.6207C1154.28 88.8889 1153.73 89.3417 1153.35 89.9217C1152.96 90.5018 1152.76 91.183 1152.76 91.8792C1152.76 92.3404 1152.85 92.7971 1153.03 93.223C1153.2 93.6489 1153.46 94.0357 1153.79 94.3612C1154.12 94.6867 1154.5 94.9445 1154.93 95.1198C1155.36 95.2951 1155.81 95.3844 1156.28 95.3827Z" fill="#283978"/>
<path d="M1124.51 95.4223C1126.44 95.4223 1128.01 93.8537 1128.01 91.9188C1128.01 89.9839 1126.44 88.4153 1124.51 88.4153C1122.57 88.4153 1121 89.9839 1121 91.9188C1121 93.8537 1122.57 95.4223 1124.51 95.4223Z" fill="#283978"/>
<path d="M1094.09 95.0229C1095.88 94.2871 1096.74 92.2399 1096 90.4503C1095.27 88.6607 1093.22 87.8065 1091.43 88.5423C1089.64 89.278 1088.79 91.3253 1089.52 93.1148C1090.26 94.9044 1092.3 95.7587 1094.09 95.0229Z" fill="#283978"/>
<path d="M1060.99 95.3827C1061.69 95.3827 1062.37 95.1761 1062.95 94.789C1063.53 94.402 1063.98 93.852 1064.24 93.2087C1064.51 92.5653 1064.58 91.8575 1064.44 91.175C1064.3 90.4924 1063.97 89.8658 1063.47 89.3745C1062.98 88.8832 1062.35 88.5493 1061.67 88.4151C1060.99 88.2809 1060.28 88.3524 1059.64 88.6207C1058.99 88.8889 1058.45 89.3417 1058.06 89.9217C1057.68 90.5018 1057.47 91.183 1057.48 91.8792C1057.47 92.3404 1057.57 92.7971 1057.74 93.223C1057.92 93.6489 1058.18 94.0357 1058.51 94.3612C1058.83 94.6867 1059.22 94.9445 1059.65 95.1198C1060.07 95.2951 1060.53 95.3844 1060.99 95.3827Z" fill="#283978"/>
<path d="M1251.56 67.0092C1253.5 67.0092 1255.06 65.4406 1255.06 63.5057C1255.06 61.5708 1253.5 60.0022 1251.56 60.0022C1249.63 60.0022 1248.06 61.5708 1248.06 63.5057C1248.06 65.4406 1249.63 67.0092 1251.56 67.0092Z" fill="#283978"/>
<path d="M1219.79 67.0092C1221.73 67.0092 1223.29 65.4406 1223.29 63.5057C1223.29 61.5708 1221.73 60.0022 1219.79 60.0022C1217.86 60.0022 1216.29 61.5708 1216.29 63.5057C1216.29 65.4406 1217.86 67.0092 1219.79 67.0092Z" fill="#283978"/>
<path d="M1188.03 67.0228C1188.73 67.0254 1189.41 66.8214 1189.99 66.4366C1190.57 66.0518 1191.02 65.5034 1191.29 64.861C1191.56 64.2187 1191.63 63.5112 1191.5 62.8281C1191.36 62.1451 1191.03 61.5172 1190.54 61.024C1190.05 60.5309 1189.42 60.1946 1188.74 60.0578C1188.06 59.921 1187.35 59.9899 1186.7 60.2557C1186.06 60.5215 1185.51 60.9722 1185.12 61.5509C1184.74 62.1295 1184.53 62.8099 1184.53 63.506C1184.53 64.4364 1184.9 65.3289 1185.56 65.9881C1186.21 66.6472 1187.1 67.0193 1188.03 67.0228Z" fill="#283978"/>
<path d="M1156.28 67.0228C1156.97 67.0228 1157.65 66.8166 1158.23 66.4301C1158.81 66.0437 1159.26 65.4945 1159.53 64.8519C1159.79 64.2093 1159.86 63.5021 1159.73 62.8199C1159.59 62.1378 1159.25 61.5111 1158.76 61.0193C1158.27 60.5274 1157.64 60.1925 1156.96 60.0568C1156.28 59.9211 1155.57 59.9908 1154.93 60.257C1154.29 60.5232 1153.74 60.9739 1153.35 61.5522C1152.97 62.1306 1152.76 62.8104 1152.76 63.506C1152.76 63.9678 1152.85 64.4252 1153.03 64.8519C1153.2 65.2785 1153.46 65.6662 1153.79 65.9927C1154.12 66.3193 1154.5 66.5784 1154.93 66.7551C1155.36 66.9318 1155.81 67.0228 1156.28 67.0228Z" fill="#283978"/>
<path d="M1124.51 67.0092C1126.44 67.0092 1128.01 65.4406 1128.01 63.5057C1128.01 61.5708 1126.44 60.0022 1124.51 60.0022C1122.57 60.0022 1121 61.5708 1121 63.5057C1121 65.4406 1122.57 67.0092 1124.51 67.0092Z" fill="#283978"/>
<path d="M1094.09 66.6072C1095.88 65.8714 1096.74 63.8242 1096 62.0346C1095.26 60.245 1093.22 59.3908 1091.43 60.1266C1089.64 60.8624 1088.78 62.9095 1089.52 64.6991C1090.26 66.4887 1092.3 67.343 1094.09 66.6072Z" fill="#283978"/>
<path d="M1060.99 67.0229C1061.69 67.0229 1062.37 66.8167 1062.95 66.4303C1063.52 66.0438 1063.97 65.4946 1064.24 64.852C1064.51 64.2094 1064.58 63.5022 1064.44 62.8201C1064.31 62.1379 1063.97 61.5112 1063.48 61.0194C1062.99 60.5275 1062.36 60.1926 1061.68 60.0569C1061 59.9213 1060.29 59.9909 1059.65 60.2571C1059 60.5233 1058.45 60.974 1058.07 61.5523C1057.68 62.1307 1057.47 62.8106 1057.47 63.5061C1057.47 64.4388 1057.85 65.3333 1058.51 65.9929C1059.16 66.6524 1060.06 67.0229 1060.99 67.0229Z" fill="#283978"/>
</g>
<defs>
<clipPath id="clip0_3003_105">
<rect width="197.589" height="120.645" fill="white" transform="translate(1057.47 203.327)"/>
</clipPath>
<clipPath id="clip1_3003_105">
<rect width="197.589" height="120.645" fill="white" transform="translate(1057.47 60.0021)"/>
</clipPath>
</defs>
</svg>
