<svg width="199" height="264" viewBox="0 0 199 264" fill="none" xmlns="http://www.w3.org/2000/svg">
<g clip-path="url(#clip0_3005_103)">
<path d="M194.56 263.972C196.495 263.972 198.064 262.404 198.064 260.469C198.064 258.534 196.495 256.965 194.56 256.965C192.625 256.965 191.057 258.534 191.057 260.469C191.057 262.404 192.625 263.972 194.56 263.972Z" fill="#283978"/>
<path d="M162.79 263.972C164.725 263.972 166.294 262.404 166.294 260.469C166.294 258.534 164.725 256.965 162.79 256.965C160.856 256.965 159.287 258.534 159.287 260.469C159.287 262.404 160.856 263.972 162.79 263.972Z" fill="#283978"/>
<path d="M131.034 263.973C131.73 263.975 132.411 263.771 132.991 263.387C133.571 263.002 134.024 262.453 134.292 261.811C134.561 261.169 134.632 260.461 134.498 259.778C134.364 259.095 134.03 258.467 133.539 257.974C133.047 257.481 132.421 257.145 131.738 257.008C131.056 256.871 130.348 256.94 129.704 257.206C129.061 257.471 128.511 257.922 128.124 258.501C127.737 259.079 127.53 259.76 127.53 260.456C127.53 261.386 127.899 262.279 128.556 262.938C129.212 263.597 130.103 263.969 131.034 263.973Z" fill="#283978"/>
<path d="M99.2761 263.973C99.9716 263.973 100.652 263.767 101.23 263.38C101.808 262.994 102.259 262.444 102.525 261.802C102.791 261.159 102.861 260.452 102.725 259.77C102.589 259.088 102.255 258.461 101.763 257.969C101.271 257.477 100.644 257.142 99.9621 257.007C99.28 256.871 98.5728 256.941 97.9302 257.207C97.2876 257.473 96.7385 257.924 96.352 258.502C95.9656 259.081 95.7593 259.76 95.7593 260.456C95.7593 260.918 95.8502 261.375 96.0269 261.802C96.2036 262.228 96.4627 262.616 96.7893 262.943C97.1158 263.269 97.5035 263.528 97.9302 263.705C98.3569 263.882 98.8143 263.973 99.2761 263.973Z" fill="#283978"/>
<path d="M67.5062 263.972C69.4411 263.972 71.0097 262.404 71.0097 260.469C71.0097 258.534 69.4411 256.965 67.5062 256.965C65.5713 256.965 64.0027 258.534 64.0027 260.469C64.0027 262.404 65.5713 263.972 67.5062 263.972Z" fill="#283978"/>
<path d="M37.0894 263.555C38.879 262.819 39.7332 260.772 38.9975 258.982C38.2617 257.192 36.2145 256.338 34.4249 257.074C32.6353 257.81 31.781 259.857 32.5168 261.647C33.2526 263.436 35.2998 264.29 37.0894 263.555Z" fill="#283978"/>
<path d="M3.99199 257.005C3.29531 257.003 2.61364 257.207 2.03328 257.592C1.45292 257.978 1.00009 258.527 0.732274 259.17C0.464455 259.813 0.393696 260.521 0.528968 261.205C0.66424 261.888 0.999416 262.516 1.49204 263.009C1.98467 263.501 2.61246 263.837 3.29588 263.972C3.97931 264.107 4.68759 264.036 5.33073 263.769C5.97388 263.501 6.52301 263.048 6.90843 262.468C7.29385 261.887 7.49813 261.205 7.49551 260.509C7.49201 259.581 7.1218 258.692 6.46553 258.035C5.80925 257.379 4.9201 257.009 3.99199 257.005Z" fill="#283978"/>
<path d="M194.56 235.559C196.495 235.559 198.064 233.99 198.064 232.056C198.064 230.121 196.495 228.552 194.56 228.552C192.625 228.552 191.057 230.121 191.057 232.056C191.057 233.99 192.625 235.559 194.56 235.559Z" fill="#283978"/>
<path d="M162.79 235.559C164.725 235.559 166.294 233.99 166.294 232.056C166.294 230.121 164.725 228.552 162.79 228.552C160.856 228.552 159.287 230.121 159.287 232.056C159.287 233.99 160.856 235.559 162.79 235.559Z" fill="#283978"/>
<path d="M131.034 235.56C131.73 235.562 132.412 235.358 132.993 234.973C133.573 234.587 134.026 234.038 134.294 233.395C134.562 232.752 134.632 232.043 134.497 231.36C134.362 230.677 134.027 230.049 133.534 229.556C133.041 229.064 132.413 228.728 131.73 228.593C131.047 228.458 130.338 228.529 129.695 228.796C129.052 229.064 128.503 229.517 128.118 230.097C127.732 230.678 127.528 231.359 127.53 232.056C127.534 232.984 127.904 233.873 128.56 234.53C129.217 235.186 130.106 235.556 131.034 235.56Z" fill="#283978"/>
<path d="M99.2761 235.56C99.9722 235.56 100.653 235.353 101.231 234.966C101.81 234.579 102.261 234.029 102.526 233.386C102.792 232.742 102.861 232.034 102.724 231.352C102.587 230.669 102.251 230.043 101.758 229.551C101.265 229.06 100.637 228.726 99.9539 228.592C99.2708 228.458 98.5634 228.529 97.921 228.798C97.2786 229.066 96.7304 229.519 96.3456 230.099C95.9607 230.679 95.7567 231.36 95.7593 232.056C95.7593 232.517 95.8503 232.974 96.0272 233.4C96.2041 233.826 96.4634 234.213 96.7901 234.538C97.1168 234.864 97.5046 235.121 97.9312 235.297C98.3578 235.472 98.8149 235.561 99.2761 235.56Z" fill="#283978"/>
<path d="M67.5062 235.559C69.4411 235.559 71.0097 233.99 71.0097 232.056C71.0097 230.121 69.4411 228.552 67.5062 228.552C65.5713 228.552 64.0027 230.121 64.0027 232.056C64.0027 233.99 65.5713 235.559 67.5062 235.559Z" fill="#283978"/>
<path d="M37.092 235.152C38.8816 234.416 39.7358 232.369 39.0001 230.579C38.2643 228.79 36.217 227.935 34.4275 228.671C32.6379 229.407 31.7836 231.454 32.5194 233.244C33.2552 235.033 35.3024 235.888 37.092 235.152Z" fill="#283978"/>
<path d="M3.9918 235.56C4.68792 235.56 5.36834 235.353 5.94695 234.966C6.52557 234.579 6.97634 234.029 7.24212 233.386C7.5079 232.742 7.57686 232.034 7.44008 231.352C7.30331 230.669 6.96693 230.043 6.47377 229.551C5.98061 229.06 5.35282 228.726 4.66976 228.592C3.9867 228.458 3.27923 228.529 2.63686 228.798C1.99449 229.066 1.4461 229.519 1.06127 230.099C0.676442 230.679 0.472374 231.36 0.475001 232.056C0.474997 232.517 0.566048 232.974 0.742944 233.4C0.919841 233.826 1.17922 234.213 1.50595 234.538C1.83269 234.864 2.22047 235.121 2.64706 235.297C3.07366 235.472 3.5306 235.561 3.9918 235.56Z" fill="#283978"/>
<path d="M194.56 207.146C196.495 207.146 198.064 205.577 198.064 203.642C198.064 201.707 196.495 200.139 194.56 200.139C192.625 200.139 191.057 201.707 191.057 203.642C191.057 205.577 192.625 207.146 194.56 207.146Z" fill="#283978"/>
<path d="M162.79 207.146C164.725 207.146 166.294 205.577 166.294 203.642C166.294 201.707 164.725 200.139 162.79 200.139C160.856 200.139 159.287 201.707 159.287 203.642C159.287 205.577 160.856 207.146 162.79 207.146Z" fill="#283978"/>
<path d="M131.034 207.16C131.73 207.162 132.411 206.958 132.991 206.573C133.571 206.189 134.024 205.64 134.292 204.998C134.561 204.355 134.632 203.648 134.498 202.965C134.364 202.282 134.03 201.654 133.539 201.161C133.047 200.668 132.421 200.331 131.738 200.195C131.056 200.058 130.348 200.127 129.704 200.392C129.061 200.658 128.511 201.109 128.124 201.688C127.737 202.266 127.53 202.947 127.53 203.643C127.53 204.573 127.899 205.466 128.556 206.125C129.212 206.784 130.103 207.156 131.034 207.16Z" fill="#283978"/>
<path d="M99.2761 207.16C99.9716 207.16 100.652 206.953 101.23 206.567C101.808 206.18 102.259 205.631 102.525 204.989C102.791 204.346 102.861 203.639 102.725 202.957C102.589 202.274 102.255 201.648 101.763 201.156C101.271 200.664 100.644 200.329 99.9621 200.194C99.28 200.058 98.5728 200.128 97.9302 200.394C97.2876 200.66 96.7385 201.111 96.352 201.689C95.9656 202.267 95.7593 202.947 95.7593 203.643C95.7593 204.105 95.8502 204.562 96.0269 204.989C96.2036 205.415 96.4627 205.803 96.7893 206.129C97.1158 206.456 97.5035 206.715 97.9302 206.892C98.3569 207.069 98.8143 207.16 99.2761 207.16Z" fill="#283978"/>
<path d="M67.5062 207.146C69.4411 207.146 71.0097 205.577 71.0097 203.642C71.0097 201.707 69.4411 200.139 67.5062 200.139C65.5713 200.139 64.0027 201.707 64.0027 203.642C64.0027 205.577 65.5713 207.146 67.5062 207.146Z" fill="#283978"/>
<path d="M37.0906 206.75C38.8802 206.015 39.7345 203.967 38.9987 202.178C38.2629 200.388 36.2157 199.534 34.4261 200.27C32.6365 201.006 31.7822 203.053 32.518 204.842C33.2538 206.632 35.301 207.486 37.0906 206.75Z" fill="#283978"/>
<path d="M3.99178 207.16C4.68733 207.16 5.3673 206.953 5.94563 206.567C6.52396 206.18 6.97462 205.631 7.2408 204.989C7.50698 204.346 7.57672 203.639 7.44103 202.957C7.30533 202.274 6.97043 201.648 6.4786 201.156C5.98677 200.664 5.36002 200.329 4.67784 200.194C3.99565 200.058 3.28867 200.128 2.64607 200.394C2.00346 200.66 1.45415 201.111 1.06772 201.689C0.681297 202.267 0.474976 202.947 0.474976 203.643C0.474976 204.575 0.845595 205.47 1.50512 206.129C2.16464 206.789 3.05907 207.16 3.99178 207.16Z" fill="#283978"/>
<path d="M194.56 178.747C196.495 178.747 198.064 177.179 198.064 175.244C198.064 173.309 196.495 171.74 194.56 171.74C192.625 171.74 191.057 173.309 191.057 175.244C191.057 177.179 192.625 178.747 194.56 178.747Z" fill="#283978"/>
<path d="M162.79 178.747C164.725 178.747 166.294 177.179 166.294 175.244C166.294 173.309 164.725 171.74 162.79 171.74C160.856 171.74 159.287 173.309 159.287 175.244C159.287 177.179 160.856 178.747 162.79 178.747Z" fill="#283978"/>
<path d="M131.034 178.708C131.73 178.71 132.412 178.506 132.993 178.12C133.573 177.735 134.026 177.186 134.294 176.543C134.562 175.9 134.632 175.191 134.497 174.508C134.362 173.825 134.027 173.197 133.534 172.704C133.041 172.212 132.413 171.876 131.73 171.741C131.047 171.606 130.338 171.676 129.695 171.944C129.052 172.212 128.503 172.665 128.118 173.245C127.732 173.826 127.528 174.507 127.53 175.204C127.534 176.132 127.904 177.021 128.56 177.678C129.217 178.334 130.106 178.704 131.034 178.708Z" fill="#283978"/>
<path d="M99.2761 178.708C99.9722 178.708 100.653 178.501 101.231 178.114C101.81 177.727 102.261 177.177 102.526 176.534C102.792 175.89 102.861 175.182 102.724 174.5C102.587 173.817 102.251 173.191 101.758 172.699C101.265 172.208 100.637 171.874 99.9539 171.74C99.2708 171.606 98.5634 171.677 97.921 171.946C97.2786 172.214 96.7304 172.667 96.3456 173.247C95.9607 173.827 95.7567 174.508 95.7593 175.204C95.7593 175.665 95.8503 176.122 96.0272 176.548C96.2041 176.974 96.4634 177.361 96.7901 177.686C97.1168 178.012 97.5046 178.269 97.9312 178.445C98.3578 178.62 98.8149 178.709 99.2761 178.708Z" fill="#283978"/>
<path d="M67.5062 178.747C69.4411 178.747 71.0097 177.179 71.0097 175.244C71.0097 173.309 69.4411 171.74 67.5062 171.74C65.5713 171.74 64.0027 173.309 64.0027 175.244C64.0027 177.179 65.5713 178.747 67.5062 178.747Z" fill="#283978"/>
<path d="M37.0945 178.348C38.8841 177.612 39.7384 175.565 39.0026 173.775C38.2668 171.986 36.2196 171.131 34.43 171.867C32.6405 172.603 31.7862 174.65 32.522 176.44C33.2577 178.229 35.305 179.084 37.0945 178.348Z" fill="#283978"/>
<path d="M3.9918 178.708C4.68792 178.708 5.36834 178.501 5.94695 178.114C6.52557 177.727 6.97634 177.177 7.24212 176.534C7.5079 175.89 7.57686 175.182 7.44008 174.5C7.30331 173.817 6.96693 173.191 6.47377 172.699C5.98061 172.208 5.35282 171.874 4.66976 171.74C3.9867 171.606 3.27923 171.677 2.63686 171.946C1.99449 172.214 1.4461 172.667 1.06127 173.247C0.676442 173.827 0.472374 174.508 0.475001 175.204C0.474997 175.665 0.566048 176.122 0.742944 176.548C0.919841 176.974 1.17922 177.361 1.50595 177.686C1.83269 178.012 2.22047 178.269 2.64706 178.445C3.07366 178.62 3.5306 178.709 3.9918 178.708Z" fill="#283978"/>
<path d="M194.56 150.334C196.495 150.334 198.064 148.765 198.064 146.831C198.064 144.896 196.495 143.327 194.56 143.327C192.625 143.327 191.057 144.896 191.057 146.831C191.057 148.765 192.625 150.334 194.56 150.334Z" fill="#283978"/>
<path d="M162.791 150.334C164.726 150.334 166.294 148.765 166.294 146.831C166.294 144.896 164.726 143.327 162.791 143.327C160.856 143.327 159.287 144.896 159.287 146.831C159.287 148.765 160.856 150.334 162.791 150.334Z" fill="#283978"/>
<path d="M131.034 150.348C131.73 150.35 132.411 150.146 132.991 149.761C133.571 149.377 134.024 148.828 134.292 148.186C134.561 147.543 134.632 146.836 134.498 146.153C134.364 145.47 134.03 144.842 133.539 144.349C133.047 143.856 132.421 143.519 131.738 143.383C131.056 143.246 130.348 143.315 129.704 143.581C129.061 143.846 128.511 144.297 128.124 144.876C127.737 145.454 127.53 146.135 127.53 146.831C127.53 147.761 127.899 148.654 128.556 149.313C129.212 149.972 130.103 150.344 131.034 150.348Z" fill="#283978"/>
<path d="M99.2761 150.348C99.9716 150.348 100.652 150.141 101.23 149.755C101.808 149.369 102.259 148.819 102.525 148.177C102.791 147.534 102.861 146.827 102.725 146.145C102.589 145.463 102.255 144.836 101.763 144.344C101.271 143.852 100.644 143.517 99.9621 143.382C99.28 143.246 98.5728 143.316 97.9302 143.582C97.2876 143.848 96.7385 144.299 96.352 144.877C95.9656 145.455 95.7593 146.135 95.7593 146.831C95.7593 147.293 95.8502 147.75 96.0269 148.177C96.2036 148.603 96.4627 148.991 96.7893 149.318C97.1158 149.644 97.5035 149.903 97.9302 150.08C98.3569 150.257 98.8143 150.348 99.2761 150.348Z" fill="#283978"/>
<path d="M67.5062 150.334C69.4411 150.334 71.0097 148.765 71.0097 146.831C71.0097 144.896 69.4411 143.327 67.5062 143.327C65.5713 143.327 64.0027 144.896 64.0027 146.831C64.0027 148.765 65.5713 150.334 67.5062 150.334Z" fill="#283978"/>
<path d="M37.092 149.932C38.8815 149.196 39.7358 147.149 39 145.36C38.2642 143.57 36.217 142.716 34.4275 143.452C32.6379 144.187 31.7836 146.234 32.5194 148.024C33.2551 149.814 35.3024 150.668 37.092 149.932Z" fill="#283978"/>
<path d="M3.99178 150.348C4.68733 150.348 5.3673 150.141 5.94563 149.755C6.52396 149.369 6.97462 148.819 7.2408 148.177C7.50698 147.534 7.57672 146.827 7.44103 146.145C7.30533 145.463 6.97043 144.836 6.4786 144.344C5.98677 143.852 5.36002 143.517 4.67784 143.382C3.99565 143.246 3.28867 143.316 2.64607 143.582C2.00346 143.848 1.45415 144.299 1.06772 144.877C0.681297 145.455 0.474976 146.135 0.474976 146.831C0.474976 147.764 0.845595 148.658 1.50512 149.318C2.16464 149.977 3.05907 150.348 3.99178 150.348Z" fill="#283978"/>
</g>
<g clip-path="url(#clip1_3005_103)">
<path d="M194.56 120.647C196.495 120.647 198.064 119.079 198.064 117.144C198.064 115.209 196.495 113.64 194.56 113.64C192.625 113.64 191.057 115.209 191.057 117.144C191.057 119.079 192.625 120.647 194.56 120.647Z" fill="#283978"/>
<path d="M162.79 120.647C164.725 120.647 166.294 119.079 166.294 117.144C166.294 115.209 164.725 113.64 162.79 113.64C160.856 113.64 159.287 115.209 159.287 117.144C159.287 119.079 160.856 120.647 162.79 120.647Z" fill="#283978"/>
<path d="M131.034 120.648C131.73 120.65 132.411 120.446 132.991 120.062C133.571 119.677 134.024 119.128 134.292 118.486C134.561 117.844 134.632 117.136 134.498 116.453C134.364 115.77 134.03 115.142 133.539 114.649C133.047 114.156 132.421 113.82 131.738 113.683C131.056 113.546 130.348 113.615 129.704 113.881C129.061 114.146 128.511 114.597 128.124 115.176C127.737 115.754 127.53 116.435 127.53 117.131C127.53 118.061 127.899 118.954 128.556 119.613C129.212 120.272 130.103 120.644 131.034 120.648Z" fill="#283978"/>
<path d="M99.2761 120.648C99.9716 120.648 100.652 120.442 101.23 120.055C101.808 119.669 102.259 119.119 102.525 118.477C102.791 117.834 102.861 117.127 102.725 116.445C102.589 115.763 102.255 115.136 101.763 114.644C101.271 114.153 100.644 113.818 99.9621 113.682C99.28 113.546 98.5728 113.616 97.9302 113.882C97.2876 114.148 96.7385 114.599 96.352 115.177C95.9656 115.756 95.7593 116.435 95.7593 117.131C95.7593 117.593 95.8502 118.05 96.0269 118.477C96.2036 118.904 96.4627 119.291 96.7893 119.618C97.1158 119.944 97.5035 120.203 97.9302 120.38C98.3569 120.557 98.8143 120.648 99.2761 120.648Z" fill="#283978"/>
<path d="M67.5062 120.647C69.4411 120.647 71.0097 119.079 71.0097 117.144C71.0097 115.209 69.4411 113.64 67.5062 113.64C65.5713 113.64 64.0027 115.209 64.0027 117.144C64.0027 119.079 65.5713 120.647 67.5062 120.647Z" fill="#283978"/>
<path d="M37.0894 120.23C38.879 119.494 39.7332 117.447 38.9975 115.657C38.2617 113.867 36.2145 113.013 34.4249 113.749C32.6353 114.485 31.781 116.532 32.5168 118.322C33.2526 120.111 35.2998 120.965 37.0894 120.23Z" fill="#283978"/>
<path d="M3.99199 113.68C3.29531 113.678 2.61364 113.882 2.03328 114.268C1.45292 114.653 1.00009 115.202 0.732274 115.845C0.464455 116.488 0.393696 117.197 0.528968 117.88C0.66424 118.563 0.999416 119.191 1.49204 119.684C1.98467 120.177 2.61246 120.512 3.29588 120.647C3.97931 120.782 4.68759 120.711 5.33073 120.444C5.97388 120.176 6.52301 119.723 6.90843 119.143C7.29385 118.562 7.49813 117.881 7.49551 117.184C7.49201 116.256 7.1218 115.367 6.46553 114.71C5.80925 114.054 4.9201 113.684 3.99199 113.68Z" fill="#283978"/>
<path d="M194.56 92.2342C196.495 92.2342 198.064 90.6656 198.064 88.7307C198.064 86.7957 196.495 85.2272 194.56 85.2272C192.625 85.2272 191.057 86.7957 191.057 88.7307C191.057 90.6656 192.625 92.2342 194.56 92.2342Z" fill="#283978"/>
<path d="M162.79 92.2342C164.725 92.2342 166.294 90.6656 166.294 88.7307C166.294 86.7957 164.725 85.2272 162.79 85.2272C160.856 85.2272 159.287 86.7957 159.287 88.7307C159.287 90.6656 160.856 92.2342 162.79 92.2342Z" fill="#283978"/>
<path d="M131.034 92.2347C131.73 92.2373 132.412 92.033 132.993 91.6476C133.573 91.2621 134.026 90.713 134.294 90.0699C134.562 89.4267 134.632 88.7185 134.497 88.0351C134.362 87.3517 134.027 86.7238 133.534 86.2312C133.041 85.7386 132.413 85.4034 131.73 85.2681C131.047 85.1328 130.338 85.2036 129.695 85.4714C129.052 85.7392 128.503 86.1921 128.118 86.7724C127.732 87.3528 127.528 88.0345 127.53 88.7312C127.534 89.6593 127.904 90.5484 128.56 91.2047C129.217 91.8609 130.106 92.2312 131.034 92.2347Z" fill="#283978"/>
<path d="M99.2761 92.2347C99.9722 92.2347 100.653 92.0281 101.231 91.6411C101.81 91.2541 102.261 90.704 102.526 90.0606C102.792 89.4173 102.861 88.7095 102.724 88.0269C102.587 87.3444 102.251 86.7178 101.758 86.2265C101.265 85.7352 100.637 85.4013 99.9539 85.2671C99.2708 85.1329 98.5634 85.2045 97.921 85.4727C97.2786 85.7409 96.7304 86.1937 96.3456 86.7738C95.9607 87.3539 95.7567 88.0351 95.7593 88.7312C95.7593 89.1924 95.8503 89.649 96.0272 90.075C96.2041 90.5009 96.4634 90.8877 96.7901 91.2133C97.1168 91.5388 97.5046 91.7965 97.9312 91.9718C98.3578 92.1471 98.8149 92.2365 99.2761 92.2347Z" fill="#283978"/>
<path d="M67.5062 92.2342C69.4411 92.2342 71.0097 90.6656 71.0097 88.7307C71.0097 86.7957 69.4411 85.2272 67.5062 85.2272C65.5713 85.2272 64.0027 86.7957 64.0027 88.7307C64.0027 90.6656 65.5713 92.2342 67.5062 92.2342Z" fill="#283978"/>
<path d="M37.092 91.827C38.8816 91.0912 39.7358 89.044 39.0001 87.2544C38.2643 85.4648 36.217 84.6105 34.4275 85.3463C32.6379 86.0821 31.7836 88.1293 32.5194 89.9189C33.2552 91.7085 35.3024 92.5628 37.092 91.827Z" fill="#283978"/>
<path d="M3.9918 92.2347C4.68792 92.2347 5.36834 92.0281 5.94695 91.6411C6.52557 91.2541 6.97634 90.704 7.24212 90.0606C7.5079 89.4173 7.57686 88.7095 7.44008 88.0269C7.30331 87.3444 6.96693 86.7178 6.47377 86.2265C5.98061 85.7352 5.35282 85.4013 4.66976 85.2671C3.9867 85.1329 3.27923 85.2045 2.63686 85.4727C1.99449 85.7409 1.4461 86.1937 1.06127 86.7738C0.676442 87.3539 0.472374 88.0351 0.475001 88.7312C0.474997 89.1924 0.566048 89.649 0.742944 90.075C0.919841 90.5009 1.17922 90.8877 1.50595 91.2133C1.83269 91.5388 2.22047 91.7965 2.64706 91.9718C3.07366 92.1471 3.5306 92.2365 3.9918 92.2347Z" fill="#283978"/>
<path d="M194.56 63.8211C196.495 63.8211 198.064 62.2525 198.064 60.3176C198.064 58.3827 196.495 56.8141 194.56 56.8141C192.625 56.8141 191.057 58.3827 191.057 60.3176C191.057 62.2525 192.625 63.8211 194.56 63.8211Z" fill="#283978"/>
<path d="M162.79 63.8211C164.725 63.8211 166.294 62.2525 166.294 60.3176C166.294 58.3827 164.725 56.8141 162.79 56.8141C160.856 56.8141 159.287 58.3827 159.287 60.3176C159.287 62.2525 160.856 63.8211 162.79 63.8211Z" fill="#283978"/>
<path d="M131.034 63.8347C131.73 63.8373 132.411 63.6333 132.991 63.2485C133.571 62.8637 134.024 62.3153 134.292 61.6729C134.561 61.0306 134.632 60.3231 134.498 59.64C134.364 58.957 134.03 58.3291 133.539 57.8359C133.047 57.3428 132.421 57.0065 131.738 56.8697C131.056 56.7329 130.348 56.8018 129.704 57.0676C129.061 57.3334 128.511 57.7841 128.124 58.3627C127.737 58.9414 127.53 59.6218 127.53 60.3179C127.53 61.2483 127.899 62.1408 128.556 62.7999C129.212 63.4591 130.103 63.8312 131.034 63.8347Z" fill="#283978"/>
<path d="M99.2761 63.8347C99.9716 63.8347 100.652 63.6284 101.23 63.242C101.808 62.8556 102.259 62.3064 102.525 61.6638C102.791 61.0212 102.861 60.314 102.725 59.6318C102.589 58.9496 102.255 58.323 101.763 57.8311C101.271 57.3393 100.644 57.0044 99.9621 56.8687C99.28 56.733 98.5728 56.8027 97.9302 57.0689C97.2876 57.335 96.7385 57.7858 96.352 58.3641C95.9656 58.9424 95.7593 59.6223 95.7593 60.3179C95.7593 60.7797 95.8502 61.2371 96.0269 61.6638C96.2036 62.0904 96.4627 62.4781 96.7893 62.8046C97.1158 63.1312 97.5035 63.3903 97.9302 63.567C98.3569 63.7437 98.8143 63.8347 99.2761 63.8347Z" fill="#283978"/>
<path d="M67.5062 63.8211C69.4411 63.8211 71.0097 62.2525 71.0097 60.3176C71.0097 58.3827 69.4411 56.8141 67.5062 56.8141C65.5713 56.8141 64.0027 58.3827 64.0027 60.3176C64.0027 62.2525 65.5713 63.8211 67.5062 63.8211Z" fill="#283978"/>
<path d="M37.0906 63.4255C38.8802 62.6898 39.7345 60.6425 38.9987 58.853C38.2629 57.0634 36.2157 56.2092 34.4261 56.945C32.6365 57.6807 31.7822 59.7279 32.518 61.5175C33.2538 63.3071 35.301 64.1613 37.0906 63.4255Z" fill="#283978"/>
<path d="M3.99178 63.8347C4.68733 63.8347 5.3673 63.6284 5.94563 63.242C6.52396 62.8556 6.97462 62.3064 7.2408 61.6638C7.50698 61.0212 7.57672 60.314 7.44103 59.6318C7.30533 58.9496 6.97043 58.323 6.4786 57.8311C5.98677 57.3393 5.36002 57.0044 4.67784 56.8687C3.99565 56.733 3.28867 56.8027 2.64607 57.0689C2.00346 57.335 1.45415 57.7858 1.06772 58.3641C0.681297 58.9424 0.474976 59.6223 0.474976 60.3179C0.474976 61.2506 0.845595 62.1451 1.50512 62.8046C2.16464 63.4642 3.05907 63.8347 3.99178 63.8347Z" fill="#283978"/>
<path d="M194.56 35.4223C196.495 35.4223 198.064 33.8537 198.064 31.9188C198.064 29.9839 196.495 28.4153 194.56 28.4153C192.625 28.4153 191.057 29.9839 191.057 31.9188C191.057 33.8537 192.625 35.4223 194.56 35.4223Z" fill="#283978"/>
<path d="M162.79 35.4223C164.725 35.4223 166.294 33.8537 166.294 31.9188C166.294 29.9839 164.725 28.4153 162.79 28.4153C160.856 28.4153 159.287 29.9839 159.287 31.9188C159.287 33.8537 160.856 35.4223 162.79 35.4223Z" fill="#283978"/>
<path d="M131.034 35.3827C131.73 35.3853 132.412 35.1809 132.993 34.7955C133.573 34.4101 134.026 33.861 134.294 33.2178C134.562 32.5747 134.632 31.8665 134.497 31.1831C134.362 30.4996 134.027 29.8718 133.534 29.3792C133.041 28.8866 132.413 28.5513 131.73 28.4161C131.047 28.2808 130.338 28.3515 129.695 28.6194C129.052 28.8872 128.503 29.34 128.118 29.9204C127.732 30.5007 127.528 31.1825 127.53 31.8792C127.534 32.8073 127.904 33.6964 128.56 34.3527C129.217 35.009 130.106 35.3792 131.034 35.3827Z" fill="#283978"/>
<path d="M99.2761 35.3827C99.9722 35.3827 100.653 35.1761 101.231 34.789C101.81 34.402 102.261 33.852 102.526 33.2087C102.792 32.5653 102.861 31.8575 102.724 31.175C102.587 30.4924 102.251 29.8658 101.758 29.3745C101.265 28.8832 100.637 28.5493 99.9539 28.4151C99.2708 28.2809 98.5634 28.3524 97.921 28.6207C97.2786 28.8889 96.7304 29.3417 96.3456 29.9217C95.9607 30.5018 95.7567 31.183 95.7593 31.8792C95.7593 32.3404 95.8503 32.7971 96.0272 33.223C96.2041 33.6489 96.4634 34.0357 96.7901 34.3612C97.1168 34.6867 97.5046 34.9445 97.9312 35.1198C98.3578 35.2951 98.8149 35.3844 99.2761 35.3827Z" fill="#283978"/>
<path d="M67.5062 35.4223C69.4411 35.4223 71.0097 33.8537 71.0097 31.9188C71.0097 29.9839 69.4411 28.4153 67.5062 28.4153C65.5713 28.4153 64.0027 29.9839 64.0027 31.9188C64.0027 33.8537 65.5713 35.4223 67.5062 35.4223Z" fill="#283978"/>
<path d="M37.0945 35.0229C38.8841 34.2871 39.7384 32.2399 39.0026 30.4503C38.2668 28.6607 36.2196 27.8065 34.43 28.5423C32.6405 29.278 31.7862 31.3253 32.522 33.1148C33.2577 34.9044 35.305 35.7587 37.0945 35.0229Z" fill="#283978"/>
<path d="M3.9918 35.3827C4.68792 35.3827 5.36834 35.1761 5.94695 34.789C6.52557 34.402 6.97634 33.852 7.24212 33.2087C7.5079 32.5653 7.57686 31.8575 7.44008 31.175C7.30331 30.4924 6.96693 29.8658 6.47377 29.3745C5.98061 28.8832 5.35282 28.5493 4.66976 28.4151C3.9867 28.2809 3.27923 28.3524 2.63686 28.6207C1.99449 28.8889 1.4461 29.3417 1.06127 29.9217C0.676442 30.5018 0.472374 31.183 0.475001 31.8792C0.474997 32.3404 0.566048 32.7971 0.742944 33.223C0.919841 33.6489 1.17922 34.0357 1.50595 34.3612C1.83269 34.6867 2.22047 34.9445 2.64706 35.1198C3.07366 35.2951 3.5306 35.3844 3.9918 35.3827Z" fill="#283978"/>
<path d="M194.56 7.0092C196.495 7.0092 198.064 5.44063 198.064 3.5057C198.064 1.57077 196.495 0.00219727 194.56 0.00219727C192.625 0.00219727 191.057 1.57077 191.057 3.5057C191.057 5.44063 192.625 7.0092 194.56 7.0092Z" fill="#283978"/>
<path d="M162.791 7.0092C164.726 7.0092 166.294 5.44063 166.294 3.5057C166.294 1.57077 164.726 0.00219727 162.791 0.00219727C160.856 0.00219727 159.287 1.57077 159.287 3.5057C159.287 5.44063 160.856 7.0092 162.791 7.0092Z" fill="#283978"/>
<path d="M131.034 7.02281C131.73 7.02544 132.411 6.82145 132.991 6.43662C133.571 6.05179 134.024 5.5034 134.292 4.86103C134.561 4.21866 134.632 3.51119 134.498 2.82813C134.364 2.14507 134.03 1.5172 133.539 1.02404C133.047 0.530885 132.421 0.194583 131.738 0.0578084C131.056 -0.0789661 130.348 -0.0100933 129.704 0.255688C129.061 0.52147 128.511 0.972244 128.124 1.55086C127.737 2.12947 127.53 2.80989 127.53 3.50601C127.53 4.43642 127.899 5.32891 128.556 5.98805C129.212 6.64719 130.103 7.0193 131.034 7.02281Z" fill="#283978"/>
<path d="M99.2761 7.0228C99.9716 7.0228 100.652 6.81656 101.23 6.43013C101.808 6.0437 102.259 5.49448 102.525 4.85187C102.791 4.20927 102.861 3.50212 102.725 2.81994C102.589 2.13775 102.255 1.51108 101.763 1.01925C101.271 0.527425 100.644 0.192522 99.9621 0.0568271C99.28 -0.0788683 98.5728 -0.00920106 97.9302 0.256975C97.2876 0.523151 96.7385 0.973896 96.352 1.55223C95.9656 2.13056 95.7593 2.81044 95.7593 3.506C95.7593 3.96783 95.8502 4.4252 96.0269 4.85187C96.2036 5.27855 96.4627 5.66618 96.7893 5.99274C97.1158 6.3193 97.5035 6.57836 97.9302 6.7551C98.3569 6.93183 98.8143 7.0228 99.2761 7.0228Z" fill="#283978"/>
<path d="M67.5062 7.0092C69.4411 7.0092 71.0097 5.44063 71.0097 3.5057C71.0097 1.57077 69.4411 0.00219727 67.5062 0.00219727C65.5713 0.00219727 64.0027 1.57077 64.0027 3.5057C64.0027 5.44063 65.5713 7.0092 67.5062 7.0092Z" fill="#283978"/>
<path d="M37.092 6.60718C38.8815 5.8714 39.7358 3.82417 39 2.0346C38.2642 0.245021 36.217 -0.609181 34.4275 0.126602C32.6379 0.862385 31.7836 2.90954 32.5194 4.69912C33.2551 6.48869 35.3024 7.34297 37.092 6.60718Z" fill="#283978"/>
<path d="M3.99178 7.02292C4.68733 7.02292 5.3673 6.81668 5.94563 6.43025C6.52396 6.04383 6.97462 5.4946 7.2408 4.85199C7.50698 4.20939 7.57672 3.50225 7.44103 2.82006C7.30533 2.13787 6.97043 1.51121 6.4786 1.01938C5.98677 0.527547 5.36002 0.192645 4.67784 0.0569492C3.99565 -0.0787462 3.28867 -0.00907899 2.64607 0.257097C2.00346 0.523273 1.45415 0.974018 1.06772 1.55235C0.681297 2.13068 0.474976 2.81057 0.474976 3.50612C0.474976 4.43882 0.845595 5.33334 1.50512 5.99286C2.16464 6.65238 3.05907 7.02292 3.99178 7.02292Z" fill="#283978"/>
</g>
<defs>
<clipPath id="clip0_3005_103">
<rect width="197.589" height="120.645" fill="white" transform="translate(0.474976 143.327)"/>
</clipPath>
<clipPath id="clip1_3005_103">
<rect width="197.589" height="120.645" fill="white" transform="translate(0.474976 0.0020752)"/>
</clipPath>
</defs>
</svg>
